<svg xmlns="http://www.w3.org/2000/svg" xmlns:xlink="http://www.w3.org/1999/xlink" version="1.1" x="0px" y="0px" viewBox="0 0 292.881 345.10249999999996" style="enable-background:new 0 0 292.881 276.082;" xml:space="preserve"><g><path d="M122.797,138.555h2h16h2v2v11.033h113.051V0H38.359v151.588h84.438v-11.033V138.555z M217.18,143.002h-10v-4.334h10   V143.002z M231.514,143.002h-10v-4.334h10V143.002z M245.848,143.002h-10v-4.334h10V143.002z M48.361,10.002h197.486v120H48.361   V10.002z"/><path d="M137.869,163.559l0.314,0.004c0.9,0.025,1.775,0.18,2.613,0.434v-23.439h-16v37.5h2.652   c0.23-1.537,0.383-3.133,0.436-4.809C128.047,167.816,132.434,163.559,137.869,163.559z M133.797,147.057h4.5v2h-4.5V147.057z    M127.297,147.057h4.5v2h-4.5V147.057z M131.797,153.975h-4.5v-2h4.5V153.975z M138.297,158.891h-4.5v-2h4.5V158.891z    M138.297,153.975h-4.5v-2h4.5V153.975z M127.297,156.891h4.5v2h-4.5V156.891z"/><path d="M139.188,198.152c0.127-0.213,0.262-0.414,0.385-0.633c3.6-6.322,6.029-14.271,6.305-23.723   c0.133-4.416-3.338-8.106-7.756-8.236c-4.416-0.135-8.105,3.336-8.236,7.752c-0.229,7.051-1.924,12.225-4.229,16.311   c-1.813,3.199-4.084,5.756-6.467,7.809h15.941C136.557,197.432,137.918,197.695,139.188,198.152z"/><path d="M98.5,191.098c0-13.438-10.895-24.332-24.334-24.332c-13.439,0-24.334,10.895-24.334,24.332   c0,2.191,0.295,4.314,0.838,6.334h46.992C98.207,195.412,98.5,193.289,98.5,191.098z"/><path d="M135.131,199.434H10c-5.523,0-10,4.477-10,10v66.648h145.131v-66.648C145.131,203.91,140.654,199.434,135.131,199.434z"/><path d="M243.049,191.098c0-13.438-10.895-24.332-24.334-24.332c-13.439,0-24.334,10.895-24.334,24.332   c0,2.191,0.295,4.314,0.838,6.334h46.992C242.756,195.412,243.049,193.289,243.049,191.098z"/><path d="M282.881,199.434H157.752c-5.523,0-10,4.477-10,10v66.648h145.129v-66.648C292.881,203.91,288.404,199.434,282.881,199.434   z"/></g><text x="0" y="291.082" fill="#000000" font-size="5px" font-weight="bold" font-family="'Helvetica Neue', Helvetica, Arial-Unicode, Arial, Sans-serif">Created by Gan Khoon Lay</text><text x="0" y="296.082" fill="#000000" font-size="5px" font-weight="bold" font-family="'Helvetica Neue', Helvetica, Arial-Unicode, Arial, Sans-serif">from the Noun Project</text></svg>