<svg xmlns="http://www.w3.org/2000/svg" xmlns:xlink="http://www.w3.org/1999/xlink" version="1.1" x="0px" y="0px" viewBox="0 0 205.503 237.42875" style="enable-background:new 0 0 205.503 189.943;" xml:space="preserve"><g><path d="M81.077,99.123l-0.059,0.096c-1.005,1.659-1.952,3.074-2.872,4.29l1.825,17.038l9.353,6.612l11.017,52.944   c1.203,5.782,6.299,9.758,11.98,9.757c0.827,0,1.667-0.084,2.508-0.26c6.624-1.378,10.876-7.865,9.498-14.488l-12-57.667   c-0.632-3.035-2.391-5.718-4.922-7.507L84.258,93.575c-1.137,1.791-2.194,3.606-3.13,5.449L81.077,99.123z"/><path d="M170.241,86.563l27.969-2.486c4.401-0.392,7.651-4.276,7.26-8.677c-0.391-4.401-4.276-7.643-8.677-7.26l-31.01,2.757   C169.099,75.71,170.592,81.273,170.241,86.563z"/><path d="M116.339,31.941c-6.317-5.587-18.147-7.695-29.67,0.814c-17.052,12.749-25.708,22.73-36.187,42.488   c-2.369,5.428-2.814,9.885-2.065,13.611l4.046,37.771h25.143l-2.572-24.013c1.068-1.299,2.196-2.928,3.42-4.949   c2.332-4.589,5.337-9.023,8.664-13.259c-2.005-2.447-2.784-5.717-2.034-8.844l7.84-32.662c1.105-4.604,5.183-7.82,9.914-7.82   c0.8,0,1.602,0.095,2.385,0.282c2.65,0.637,4.893,2.266,6.316,4.589s1.858,5.062,1.223,7.711l-3.121,12.999   c0.777-0.75,1.538-1.487,2.267-2.199c0.953-0.781,1.84-1.643,2.661-2.558l0.262-0.883c0.14-0.471,0.786-2.181,3.231-4.42   c2.445-2.24,4.205-2.734,4.687-2.832l1.962-0.4l1.122,1.66c0.891,1.318,2.801,3.969,4.892,6.468   c0.424-0.054,0.851-0.089,1.279-0.089c3.777,0,7.175,2.074,8.941,5.304c0.788-0.296,1.311-0.607,1.32-0.613l0.632-0.386l0.756-0.06   c0.012-0.001,0.023,0,0.035-0.001L123.42,38.926l-5.781-5.912C117.236,32.603,116.799,32.247,116.339,31.941z"/><ellipse transform="matrix(0.5675 -0.8234 0.8234 0.5675 44.0571 128.8799)" cx="144.709" cy="22.502" rx="22.5" ry="22.5"/><path d="M12.514,189.943c2.265,0,4.558-0.615,6.619-1.905l54.333-34c4.057-2.539,6.308-7.17,5.798-11.928l-1.23-11.483H52.891   l0.682,6.368l-47.702,29.85c-5.853,3.662-7.628,11.375-3.966,17.228C4.278,187.863,8.349,189.943,12.514,189.943z"/><path d="M135.226,75.285l-7.477,2.492c-0.776,5.934,1.183,12.471,5.865,17.582c7.879,8.602,20.462,9.901,28.104,2.901   c7.642-7,7.449-19.648-0.43-28.25c-4.796-5.236-11.334-7.766-17.44-7.366c0,0-0.729,0.456-1.866,0.88   C143.027,68.521,140.183,73.633,135.226,75.285z"/><path d="M120.837,58.577l6.702-2.234c-2.378-2.954-4.193-5.637-4.193-5.637s-1.237,0.252-3.259,2.105s-2.382,3.063-2.382,3.063   S119.051,56.969,120.837,58.577z"/><path d="M95.003,85.941c0.847,0,1.7-0.135,2.528-0.41l37-12.333c4.192-1.397,6.457-5.928,5.061-10.119   c-1.398-4.191-5.927-6.458-10.119-5.061l-23.328,7.776l4.477-18.647c1.031-4.296-1.616-8.615-5.912-9.646   c-4.296-1.029-8.615,1.615-9.646,5.912l-7.84,32.661c-0.678,2.826,0.229,5.798,2.371,7.763   C91.093,85.21,93.03,85.941,95.003,85.941z"/><circle cx="197.502" cy="60.858" r="5.25"/></g><text x="0" y="204.943" fill="#000000" font-size="5px" font-weight="bold" font-family="'Helvetica Neue', Helvetica, Arial-Unicode, Arial, Sans-serif">Created by Gan Khoon Lay</text><text x="0" y="209.943" fill="#000000" font-size="5px" font-weight="bold" font-family="'Helvetica Neue', Helvetica, Arial-Unicode, Arial, Sans-serif">from the Noun Project</text></svg>